<svg width="160" height="49" viewBox="0 0 160 49" fill="none" xmlns="http://www.w3.org/2000/svg">
<path fill-rule="evenodd" clip-rule="evenodd" d="M48.031 7.78298C51.682 11.757 59.647 8.15798 57.062 2.86098C55.336 -0.695016 52.75 0.129984 50.904 1.04098C47.208 2.81998 46.509 6.08798 48.031 7.78298ZM42.105 5.00198C44.481 9.86798 37.168 13.173 33.813 9.52298C32.415 7.96798 33.058 4.96298 36.449 3.32998C38.146 2.49398 40.522 1.73398 42.105 5.00198ZM157.936 33.374C156.715 33.5332 155.442 33.6425 154.221 33.7474L154.179 33.751V33.807C151.764 51.171 127.991 54.038 127.4 40.406C127.131 34.239 138.993 32.456 150.798 31.318C151.007 25.9112 147.233 27.1234 142.648 28.5959C137.829 30.1437 132.115 31.979 129.19 26.717C124.171 17.692 143.822 8.77898 145.918 10.615C152.271 16.1766 149.4 17.2063 144.727 18.8824L144.539 18.95C135.049 22.36 138.748 23.057 140.028 22.676C147.597 20.423 154.394 21.636 154.34 30.993C154.955 30.9419 155.557 30.9024 156.154 30.8634L156.154 30.8634C156.807 30.8206 157.452 30.7784 158.097 30.722C160.403 30.507 160.564 33.157 157.936 33.374ZM150.422 34.13C141.298 35.158 133.409 36.566 134.269 39.485C135.985 45.058 147.846 46.303 150.422 34.13ZM117.79 17.23C116.975 22.88 116.996 28.881 117.678 28.918C118.012 28.937 119.982 28.572 120.617 27.411C121.226 26.2933 121.794 24.7543 122.388 23.141L122.388 23.1409L122.388 23.1408L122.388 23.1408L122.388 23.1407L122.388 23.1406L122.388 23.1405C123.586 19.8907 124.895 16.3397 126.883 15.324C129.725 13.873 118.795 10.279 117.79 17.23ZM28.883 45.666C20.964 51.004 14.664 49.825 16.671 34.818C18.121 23.914 15.723 23.297 13.549 25.376C10.704 28.073 8.921 35.099 8.865 41.788C9.12323 43.3951 9.45828 44.9889 9.869 46.564C10.203 48.194 4.962 49.879 1.895 47.575C0.837 46.79 0 38.865 0 28.131C0 19.307 1.171 13.236 2.23 12.956C10.259 10.765 11.542 14.304 9.813 20.937C9.12537 23.5343 8.65871 26.185 8.418 28.861C10.091 24.197 12.489 20.376 15.221 18.688C22.637 14.024 28.826 16.215 27.655 25.489C25.648 42.069 25.481 44.316 27.265 43.024C29.496 41.45 30.945 44.262 28.883 45.666ZM41.766 48.142C47.176 48.761 52.807 47.074 54.982 43.59C56.821 40.667 55.316 39.655 53.197 42.015C48.737 47.131 44.109 44.826 42.158 39.655L42.66 39.487C52.082 35.721 57.992 25.493 54.257 19.704C49.126 11.723 33.069 18.86 31.061 30.045C29.221 40.386 34.016 47.299 41.766 48.142ZM41.377 36.172C47.232 32.013 49.183 22.852 47.566 20.267C45.838 17.57 42.492 21.784 41.321 32.013C41.21 33.474 41.21 34.878 41.377 36.172ZM77.125 34.051C79.188 33.376 81.494 31.499 83.091 28.992C83.538 28.289 83.914 27.657 84.43 26.012C84.3675 26.2111 84.3915 26.1203 84.4509 25.8953C84.5588 25.4862 84.7839 24.6335 84.82 24.271C84.82 24.215 84.876 23.932 84.932 23.822C86.157 16.965 81.921 13.086 76.065 16.009C72.776 17.638 68.706 23.822 66.253 30.51C66.866 26.912 67.925 23.484 69.096 20.111C71.103 14.154 67.368 11.119 60.956 12.862C59.896 13.143 57.945 20.955 57.945 29.779C57.945 40.513 58.503 46.695 59.562 47.483C62.628 49.843 68.092 48.101 67.535 46.527C67.3189 45.9291 67.1554 45.3284 66.9926 44.7303L66.977 44.673C66.977 44.504 66.977 44.335 66.922 44.167C65.861 37.196 69.933 27.532 73.278 24.946C74.17 24.215 75.396 24.721 75.564 26.632C72.832 27.981 71.94 30.342 71.94 31.353C71.94 34.107 74.727 34.781 77.125 34.051Z" fill="#A6A6A6"/>
</svg>
